<svg width="1024" height="1024" viewBox="0 0 120 120" xmlns="http://www.w3.org/2000/svg">
  <defs>
    <linearGradient id="tile" x1="0" y1="0" x2="0" y2="1">
      <stop offset="0" stop-color="#2c2820"/>
      <stop offset="1" stop-color="#191713"/>
    </linearGradient>
  </defs>
  <path d="M108.00,60.00L107.98,73.67L107.90,78.24L107.78,81.58L107.61,84.29L107.40,86.62L107.13,88.67L106.81,90.50L106.44,92.17L106.02,93.69L105.55,95.09L105.03,96.38L104.45,97.57L103.81,98.68L103.12,99.71L102.36,100.66L101.55,101.55L100.66,102.36L99.71,103.12L98.68,103.81L97.57,104.45L96.38,105.03L95.09,105.55L93.69,106.02L92.17,106.44L90.50,106.81L88.67,107.13L86.62,107.40L84.29,107.61L81.58,107.78L78.24,107.90L73.67,107.98L60.00,108.00L46.33,107.98L41.76,107.90L38.42,107.78L35.71,107.61L33.38,107.40L31.33,107.13L29.50,106.81L27.83,106.44L26.31,106.02L24.91,105.55L23.62,105.03L22.43,104.45L21.32,103.81L20.29,103.12L19.34,102.36L18.45,101.55L17.64,100.66L16.88,99.71L16.19,98.68L15.55,97.57L14.97,96.38L14.45,95.09L13.98,93.69L13.56,92.17L13.19,90.50L12.87,88.67L12.60,86.62L12.39,84.29L12.22,81.58L12.10,78.24L12.02,73.67L12.00,60.00L12.02,46.33L12.10,41.76L12.22,38.42L12.39,35.71L12.60,33.38L12.87,31.33L13.19,29.50L13.56,27.83L13.98,26.31L14.45,24.91L14.97,23.62L15.55,22.43L16.19,21.32L16.88,20.29L17.64,19.34L18.45,18.45L19.34,17.64L20.29,16.88L21.32,16.19L22.43,15.55L23.62,14.97L24.91,14.45L26.31,13.98L27.83,13.56L29.50,13.19L31.33,12.87L33.38,12.60L35.71,12.39L38.42,12.22L41.76,12.10L46.33,12.02L60.00,12.00L73.67,12.02L78.24,12.10L81.58,12.22L84.29,12.39L86.62,12.60L88.67,12.87L90.50,13.19L92.17,13.56L93.69,13.98L95.09,14.45L96.38,14.97L97.57,15.55L98.68,16.19L99.71,16.88L100.66,17.64L101.55,18.45L102.36,19.34L103.12,20.29L103.81,21.32L104.45,22.43L105.03,23.62L105.55,24.91L106.02,26.31L106.44,27.83L106.81,29.50L107.13,31.33L107.40,33.38L107.61,35.71L107.78,38.42L107.90,41.76L107.98,46.33Z" fill="url(#tile)"/>
  <path d="M106.50,60.00L106.48,73.24L106.41,77.67L106.29,80.90L106.13,83.54L105.91,85.79L105.65,87.77L105.35,89.55L104.99,91.16L104.58,92.64L104.13,93.99L103.62,95.24L103.06,96.40L102.44,97.47L101.77,98.47L101.04,99.39L100.25,100.25L99.39,101.04L98.47,101.77L97.47,102.44L96.40,103.06L95.24,103.62L93.99,104.13L92.64,104.58L91.16,104.99L89.55,105.35L87.77,105.65L85.79,105.91L83.54,106.13L80.90,106.29L77.67,106.41L73.24,106.48L60.00,106.50L46.76,106.48L42.33,106.41L39.10,106.29L36.46,106.13L34.21,105.91L32.23,105.65L30.45,105.35L28.84,104.99L27.36,104.58L26.01,104.13L24.76,103.62L23.60,103.06L22.53,102.44L21.53,101.77L20.61,101.04L19.75,100.25L18.96,99.39L18.23,98.47L17.56,97.47L16.94,96.40L16.38,95.24L15.87,93.99L15.42,92.64L15.01,91.16L14.65,89.55L14.35,87.77L14.09,85.79L13.87,83.54L13.71,80.90L13.59,77.67L13.52,73.24L13.50,60.00L13.52,46.76L13.59,42.33L13.71,39.10L13.87,36.46L14.09,34.21L14.35,32.23L14.65,30.45L15.01,28.84L15.42,27.36L15.87,26.01L16.38,24.76L16.94,23.60L17.56,22.53L18.23,21.53L18.96,20.61L19.75,19.75L20.61,18.96L21.53,18.23L22.53,17.56L23.60,16.94L24.76,16.38L26.01,15.87L27.36,15.42L28.84,15.01L30.45,14.65L32.23,14.35L34.21,14.09L36.46,13.87L39.10,13.71L42.33,13.59L46.76,13.52L60.00,13.50L73.24,13.52L77.67,13.59L80.90,13.71L83.54,13.87L85.79,14.09L87.77,14.35L89.55,14.65L91.16,15.01L92.64,15.42L93.99,15.87L95.24,16.38L96.40,16.94L97.47,17.56L98.47,18.23L99.39,18.96L100.25,19.75L101.04,20.61L101.77,21.53L102.44,22.53L103.06,23.60L103.62,24.76L104.13,26.01L104.58,27.36L104.99,28.84L105.35,30.45L105.65,32.23L105.91,34.21L106.13,36.46L106.29,39.10L106.41,42.33L106.48,46.76Z" fill="none" stroke="#ffffff" stroke-opacity="0.08" stroke-width="1.6"/>
  <g transform="translate(16.8 16.8) scale(0.72)">
    <path d="M56.4 39.6 L76.8 60 L56.4 80.4" transform="rotate(0 60 60)" fill="none" stroke="#d97757" stroke-width="10" stroke-linecap="round" stroke-linejoin="round"/><path d="M56.4 39.6 L76.8 60 L56.4 80.4" transform="rotate(120 60 60)" fill="none" stroke="#d97757" stroke-width="10" stroke-linecap="round" stroke-linejoin="round"/><path d="M56.4 39.6 L76.8 60 L56.4 80.4" transform="rotate(240 60 60)" fill="none" stroke="#d97757" stroke-width="10" stroke-linecap="round" stroke-linejoin="round"/>
  </g>
</svg>
